<svg width="82" height="22" viewBox="0 0 82 22" fill="none" xmlns="http://www.w3.org/2000/svg">
<path d="M0.82 21.16V1.112H4.012L4.404 3.1C4.852 2.484 5.44 1.94267 6.168 1.476C6.91467 1.00933 7.876 0.776 9.052 0.776C10.3587 0.776 11.5253 1.09333 12.552 1.728C13.5787 2.36267 14.3907 3.23067 14.988 4.332C15.5853 5.43333 15.884 6.684 15.884 8.084C15.884 9.484 15.5853 10.7347 14.988 11.836C14.3907 12.9187 13.5787 13.7773 12.552 14.412C11.5253 15.028 10.3587 15.336 9.052 15.336C8.00667 15.336 7.092 15.14 6.308 14.748C5.524 14.356 4.88933 13.8053 4.404 13.096V21.16H0.82ZM8.296 12.2C9.43467 12.2 10.3773 11.8173 11.124 11.052C11.8707 10.2867 12.244 9.29733 12.244 8.084C12.244 6.87067 11.8707 5.872 11.124 5.088C10.3773 4.304 9.43467 3.912 8.296 3.912C7.13867 3.912 6.18667 4.304 5.44 5.088C4.712 5.85333 4.348 6.84267 4.348 8.056C4.348 9.26933 4.712 10.268 5.44 11.052C6.18667 11.8173 7.13867 12.2 8.296 12.2ZM17.6856 15V1.112H20.8776L21.2136 3.716C21.7176 2.82 22.399 2.11067 23.2576 1.588C24.135 1.04667 25.1616 0.776 26.3376 0.776V4.556H25.3296C24.5456 4.556 23.8456 4.67733 23.2296 4.92C22.6136 5.16267 22.1283 5.58267 21.7736 6.18C21.4376 6.77733 21.2696 7.608 21.2696 8.672V15H17.6856ZM33.8051 15.336C32.4611 15.336 31.2478 15.028 30.1651 14.412C29.1011 13.796 28.2518 12.9467 27.6171 11.864C27.0011 10.7627 26.6931 9.49333 26.6931 8.056C26.6931 6.61867 27.0104 5.35867 27.6451 4.276C28.2798 3.17467 29.1291 2.316 30.1931 1.7C31.2758 1.084 32.4891 0.776 33.8331 0.776C35.1584 0.776 36.3531 1.084 37.4171 1.7C38.4998 2.316 39.3491 3.17467 39.9651 4.276C40.5998 5.35867 40.9171 6.61867 40.9171 8.056C40.9171 9.49333 40.5998 10.7627 39.9651 11.864C39.3491 12.9467 38.4998 13.796 37.4171 14.412C36.3344 15.028 35.1304 15.336 33.8051 15.336ZM33.8051 12.228C34.7384 12.228 35.5504 11.8827 36.2411 11.192C36.9318 10.4827 37.2771 9.43733 37.2771 8.056C37.2771 6.67467 36.9318 5.63867 36.2411 4.948C35.5504 4.23867 34.7478 3.884 33.8331 3.884C32.8811 3.884 32.0598 4.23867 31.3691 4.948C30.6971 5.63867 30.3611 6.67467 30.3611 8.056C30.3611 9.43733 30.6971 10.4827 31.3691 11.192C32.0598 11.8827 32.8718 12.228 33.8051 12.228ZM48.4616 15.336C47.2296 15.336 46.1469 15.14 45.2136 14.748C44.2802 14.3373 43.5336 13.7773 42.9736 13.068C42.4136 12.3587 42.0776 11.5373 41.9656 10.604H45.5776C45.6896 11.1453 45.9882 11.612 46.4736 12.004C46.9776 12.3773 47.6216 12.564 48.4056 12.564C49.1896 12.564 49.7589 12.4053 50.1136 12.088C50.4869 11.7707 50.6736 11.4067 50.6736 10.996C50.6736 10.3987 50.4122 9.99733 49.8896 9.792C49.3669 9.568 48.6389 9.35333 47.7056 9.148C47.1082 9.01733 46.5016 8.85867 45.8856 8.672C45.2696 8.48533 44.7002 8.252 44.1776 7.972C43.6736 7.67333 43.2629 7.3 42.9456 6.852C42.6282 6.38533 42.4696 5.816 42.4696 5.144C42.4696 3.912 42.9549 2.876 43.9256 2.036C44.9149 1.196 46.2962 0.776 48.0696 0.776C49.7122 0.776 51.0189 1.15867 51.9896 1.924C52.9789 2.68933 53.5669 3.744 53.7536 5.088H50.3656C50.1602 4.06133 49.3856 3.548 48.0416 3.548C47.3696 3.548 46.8469 3.67867 46.4736 3.94C46.1189 4.20133 45.9416 4.528 45.9416 4.92C45.9416 5.33067 46.2122 5.65733 46.7536 5.9C47.2949 6.14267 48.0136 6.36667 48.9096 6.572C49.8802 6.796 50.7669 7.048 51.5696 7.328C52.3909 7.58933 53.0442 7.99067 53.5296 8.532C54.0149 9.05467 54.2576 9.81067 54.2576 10.8C54.2762 11.6587 54.0522 12.4333 53.5856 13.124C53.1189 13.8147 52.4469 14.356 51.5696 14.748C50.6922 15.14 49.6562 15.336 48.4616 15.336ZM57.0302 21.16L60.2502 14.076H59.4102L54.0062 1.112H57.8982L61.7902 10.884L65.8502 1.112H69.6582L60.8382 21.16H57.0302ZM75.6577 15.336C74.4257 15.336 73.343 15.14 72.4097 14.748C71.4763 14.3373 70.7297 13.7773 70.1697 13.068C69.6097 12.3587 69.2737 11.5373 69.1617 10.604H72.7737C72.8857 11.1453 73.1843 11.612 73.6697 12.004C74.1737 12.3773 74.8177 12.564 75.6017 12.564C76.3857 12.564 76.955 12.4053 77.3097 12.088C77.683 11.7707 77.8697 11.4067 77.8697 10.996C77.8697 10.3987 77.6083 9.99733 77.0857 9.792C76.563 9.568 75.835 9.35333 74.9017 9.148C74.3043 9.01733 73.6977 8.85867 73.0817 8.672C72.4657 8.48533 71.8963 8.252 71.3737 7.972C70.8697 7.67333 70.459 7.3 70.1417 6.852C69.8243 6.38533 69.6657 5.816 69.6657 5.144C69.6657 3.912 70.151 2.876 71.1217 2.036C72.111 1.196 73.4923 0.776 75.2657 0.776C76.9083 0.776 78.215 1.15867 79.1857 1.924C80.175 2.68933 80.763 3.744 80.9497 5.088H77.5617C77.3563 4.06133 76.5817 3.548 75.2377 3.548C74.5657 3.548 74.043 3.67867 73.6697 3.94C73.315 4.20133 73.1377 4.528 73.1377 4.92C73.1377 5.33067 73.4083 5.65733 73.9497 5.9C74.491 6.14267 75.2097 6.36667 76.1057 6.572C77.0763 6.796 77.963 7.048 78.7657 7.328C79.587 7.58933 80.2403 7.99067 80.7257 8.532C81.211 9.05467 81.4537 9.81067 81.4537 10.8C81.4723 11.6587 81.2483 12.4333 80.7817 13.124C80.315 13.8147 79.643 14.356 78.7657 14.748C77.8883 15.14 76.8523 15.336 75.6577 15.336Z" fill="#2196F3"/>
</svg>
