<svg viewBox="0 0 182 117" fill="none" xmlns="http://www.w3.org/2000/svg">
<path d="M181.567 0.103271H0.0776367V116.74H181.567V0.103271Z" fill="#E0E0E0"/>
<path d="M176.377 14.7324H5.26709V109.84H176.377V14.7324Z" fill="white"/>
<path d="M181.489 0H0V7.73705H181.489V0Z" fill="#D05F5F"/>
<path d="M5.72983 5.38949C6.51907 5.38949 7.15888 4.74747 7.15888 3.95549C7.15888 3.16351 6.51907 2.52148 5.72983 2.52148C4.94059 2.52148 4.30078 3.16351 4.30078 3.95549C4.30078 4.74747 4.94059 5.38949 5.72983 5.38949Z" fill="white"/>
<path d="M11.1541 5.38949C11.9434 5.38949 12.5832 4.74747 12.5832 3.95549C12.5832 3.16351 11.9434 2.52148 11.1541 2.52148C10.3649 2.52148 9.7251 3.16351 9.7251 3.95549C9.7251 4.74747 10.3649 5.38949 11.1541 5.38949Z" fill="white"/>
<path d="M16.5785 5.38949C17.3677 5.38949 18.0075 4.74747 18.0075 3.95549C18.0075 3.16351 17.3677 2.52148 16.5785 2.52148C15.7892 2.52148 15.1494 3.16351 15.1494 3.95549C15.1494 4.74747 15.7892 5.38949 16.5785 5.38949Z" fill="white"/>
<path d="M64.7821 24.6006H20.8149V99.9715H64.7821V24.6006Z" fill="#E0E0E0"/>
<path d="M109.011 24.6006H72.3716V45.3473H109.011V24.6006Z" fill="#D05F5F"/>
<path d="M109.011 51.1248H72.3716V73.4472H109.011V51.1248Z" fill="#E0E0E0"/>
<path d="M109.011 79.2249H72.3716V99.9716H109.011V79.2249Z" fill="#E0E0E0"/>
<path d="M160.829 24.6006H116.862V57.4468H160.829V24.6006Z" fill="#E0E0E0"/>
<path d="M160.829 67.1252H116.862V99.9715H160.829V67.1252Z" fill="#E0E0E0"/>
<path fill-rule="evenodd" clip-rule="evenodd" d="M117 37C117 51.3594 105.359 63 91 63C76.6406 63 65 51.3594 65 37C65 22.6406 76.6406 11 91 11C105.359 11 117 22.6406 117 37ZM109.335 61.999C104.2 65.7715 97.8604 68 91 68C73.8792 68 60 54.1208 60 37C60 19.8792 73.8792 6 91 6C108.121 6 122 19.8792 122 37C122 44.3767 119.423 51.1517 115.121 56.474L142.378 84.7225C143.912 86.3123 143.867 88.8445 142.277 90.3785C140.688 91.9124 138.155 91.8672 136.622 90.2775L109.335 61.999Z" fill="#424242"/>
</svg>
