<svg viewBox="0 0 182 119" fill="none" xmlns="http://www.w3.org/2000/svg">
<g clip-path="url(#clip0_333_3424)">
<path d="M157.109 97.7216C157.015 101.247 156.425 104.741 155.357 108.101C155.333 108.179 155.307 108.256 155.281 108.334H148.743C148.75 108.264 148.757 108.186 148.764 108.101C149.199 103.084 146.709 72.9096 143.704 67.6873C143.967 68.1109 157.616 81.7787 157.109 97.7216Z" fill="#9E9E9E"/>
<path d="M156.619 108.101C156.564 108.179 156.507 108.257 156.449 108.334H151.543C151.581 108.267 151.624 108.189 151.674 108.101C152.484 106.637 154.882 102.26 157.109 97.7216C159.5 92.845 161.696 87.7834 161.511 85.9514C161.569 86.3644 163.224 98.96 156.619 108.101Z" fill="#9E9E9E"/>
<path d="M173.074 102.516C173.022 104.449 172.699 106.364 172.114 108.206C172.101 108.249 172.086 108.291 172.072 108.334H168.488C168.491 108.296 168.495 108.253 168.499 108.206C168.738 105.456 167.373 88.9137 165.725 86.0508C165.869 86.283 173.352 93.776 173.074 102.516Z" fill="#9E9E9E"/>
<path d="M172.805 108.206C172.775 108.249 172.744 108.292 172.712 108.334H170.023C170.043 108.297 170.067 108.255 170.094 108.206C170.539 107.404 171.853 105.004 173.074 102.516C174.385 99.8426 175.589 97.0678 175.488 96.0635C175.519 96.2898 176.427 103.195 172.805 108.206Z" fill="#9E9E9E"/>
<path d="M139.213 102.516C139.162 104.449 138.838 106.364 138.253 108.206C138.24 108.249 138.225 108.291 138.211 108.334H134.627C134.631 108.296 134.634 108.253 134.638 108.206C134.877 105.456 133.512 88.9137 131.864 86.0508C132.009 86.283 139.491 93.776 139.213 102.516Z" fill="#9E9E9E"/>
<path d="M138.944 108.206C138.914 108.249 138.883 108.292 138.851 108.334H136.162C136.182 108.297 136.206 108.255 136.234 108.206C136.678 107.404 137.993 105.004 139.213 102.516C140.524 99.8426 141.728 97.0678 141.627 96.0635C141.658 96.2898 142.566 103.195 138.944 108.206Z" fill="#9E9E9E"/>
<path d="M74.4878 104.802H77.9345L79.5742 91.4924L74.4873 91.4927L74.4878 104.802Z" fill="#FFB7B7"/>
<path d="M73.6084 103.675L80.3962 103.675H80.3965C81.5437 103.675 82.6439 104.131 83.4552 104.943C84.2664 105.756 84.7221 106.857 84.7222 108.006V108.146L73.6086 108.147L73.6084 103.675Z" fill="#424242"/>
<path d="M55.8259 104.802H59.2726L60.9121 91.4924L55.8252 91.4927L55.8259 104.802Z" fill="#FFB7B7"/>
<path d="M54.9468 103.675L61.7346 103.675H61.7349C62.8821 103.675 63.9823 104.131 64.7935 104.943C65.6048 105.756 66.0605 106.857 66.0606 108.006V108.146L54.947 108.147L54.9468 103.675Z" fill="#424242"/>
<path d="M54.4214 44.4805V79.6217L55.3101 102.308H62.6415L65.0852 59.6045L69.9727 77.1753L73.0832 101.863L81.9696 101.418L75.9713 44.4805H54.4214Z" fill="#424242"/>
<path d="M62.9442 12.8977C65.8889 12.8977 68.2761 10.5079 68.2761 7.55982C68.2761 4.61178 65.8889 2.22192 62.9442 2.22192C59.9995 2.22192 57.6123 4.61178 57.6123 7.55982C57.6123 10.5079 59.9995 12.8977 62.9442 12.8977Z" fill="#DE8F8F"/>
<path d="M60.7285 14.2886L59.309 15.7894L57.9761 45.8152L73.7495 45.3702L69.9727 19.1257L66.6404 15.9285L64.9495 14.2886H60.7285Z" fill="#D05F5F"/>
<path d="M58.1981 17.5685L59.3954 15.623L59.7533 19.7926C59.7533 19.7926 62.6414 29.1339 62.4192 37.3632C62.1971 45.5925 63.53 64.9423 61.7527 65.1648C59.9754 65.3872 52.4219 65.832 52.4219 64.2751C52.4219 62.7182 51.9775 21.3495 51.9775 21.3495L58.1981 17.5685Z" fill="#424242"/>
<path d="M66.2829 15.623L69.3066 18.0133L75.9715 20.4599C75.9715 20.4599 75.9715 48.9286 77.3045 55.601C78.6375 62.2734 81.0813 62.9406 77.971 63.163C74.8607 63.3854 75.0829 62.2734 75.0829 62.2734C75.0829 62.2734 77.3045 51.1528 74.4164 48.9286C71.5283 46.7045 65.9742 33.8046 66.4185 26.6874C66.8629 19.5702 65.8385 15.623 66.2829 15.623Z" fill="#424242"/>
<path d="M57.8999 9.22997C57.8999 9.22997 58.3529 8.43351 58.2476 5.77279C58.1423 3.11207 62.1893 4.61694 65.5711 4.36312C68.9529 4.1093 68.237 8.80526 68.237 8.80526C68.237 8.80526 68.481 8.52611 69.0034 6.2597C69.5257 3.9933 68.3397 1.73474 68.3397 1.73474C67.9904 -0.646831 66.1079 0.116465 66.1079 0.116465C67.0145 0.46978 66.8404 1.22525 66.8404 1.22525C66.073 -0.121695 64.1905 0.641604 64.1905 0.641604C61.6799 -0.935666 59.1353 1.1414 59.1353 1.1414C56.1023 1.83052 57.8811 4.24526 57.8811 4.24526C54.8309 5.78843 57.8999 9.22997 57.8999 9.22997Z" fill="#424242"/>
<path d="M52.4296 61.0591C52.6556 60.82 52.8265 60.5342 52.9302 60.2218C53.0339 59.9095 53.068 59.5781 53.0299 59.2511C52.9919 58.9242 52.8827 58.6095 52.7101 58.3294C52.5375 58.0492 52.3056 57.8103 52.0308 57.6296L52.9912 52.5748L50.0652 51.2412L48.809 58.3987C48.5363 58.881 48.4498 59.4467 48.5659 59.9886C48.682 60.5305 48.9927 61.0109 49.4389 61.3389C49.8852 61.6668 50.4362 61.8195 50.9874 61.7679C51.5386 61.7163 52.0517 61.4641 52.4296 61.0591Z" fill="#FFB7B7"/>
<path d="M53.0887 21.3496L52.4988 21.033C52.4988 21.033 49.3119 22.2392 49.5341 23.1289C49.7563 24.0186 47.7568 55.1563 48.4233 56.2683C49.0898 57.3804 54.4217 56.4908 54.4217 56.4908L53.0887 21.3496Z" fill="#424242"/>
<path d="M78.4505 58.9626C78.1937 58.7571 77.9849 58.4977 77.839 58.2027C77.6931 57.9077 77.6136 57.5843 77.6061 57.2552C77.5985 56.9261 77.6632 56.5994 77.7954 56.298C77.9277 55.9966 78.1243 55.7279 78.3715 55.5108L76.7217 50.6376L79.4353 48.9116L81.6686 55.8263C82.0054 56.2662 82.1692 56.8145 82.1291 57.3672C82.089 57.92 81.8478 58.4388 81.4511 58.8254C81.0544 59.212 80.5299 59.4395 79.9769 59.4648C79.4238 59.4901 78.8807 59.3114 78.4505 58.9626V58.9626Z" fill="#FFB7B7"/>
<path d="M75.8461 54.7141C75.8461 54.7141 81.2497 54.8567 81.7561 53.663C82.2625 52.4693 75.9788 21.908 76.0759 20.9962C76.173 20.0843 72.85 19.3311 72.85 19.3311L72.3096 19.7263L75.8461 54.7141Z" fill="#424242"/>
<path d="M99.7284 56.0892L96.383 39.6781L94.9135 27.5569L91.6577 29.6654L92.1075 43.023L97.3039 56.8628C97.1369 57.1812 97.0683 57.5422 97.1067 57.8998C97.1452 58.2574 97.289 58.5955 97.5199 58.8711C97.7508 59.1467 98.0583 59.3473 98.4033 59.4474C98.7484 59.5476 99.1154 59.5427 99.4577 59.4335C99.8 59.3243 100.102 59.1156 100.326 58.834C100.549 58.5525 100.684 58.2107 100.713 57.8522C100.742 57.4937 100.664 57.1347 100.489 56.8207C100.313 56.5068 100.049 56.2522 99.7284 56.0892H99.7284Z" fill="#FFB7B7"/>
<path d="M68.4393 57.3582L69.3654 40.6345L69.0586 28.4282L73.3628 30.0404L74.0813 43.3215L70.9504 57.7706C71.1619 58.0614 71.2823 58.4085 71.2962 58.7679C71.3101 59.1273 71.2169 59.4828 71.0285 59.789C70.8401 60.0953 70.565 60.3385 70.2381 60.4878C69.9113 60.6372 69.5475 60.6858 69.1929 60.6276C68.8384 60.5693 68.5092 60.4069 68.2471 60.1608C67.985 59.9148 67.802 59.5963 67.7212 59.2458C67.6404 58.8954 67.6656 58.5288 67.7934 58.1926C67.9213 57.8565 68.1461 57.5661 68.4393 57.3582Z" fill="#FFB7B7"/>
<path d="M77.4539 105.98H79.6531L80.6995 97.4873L77.4536 97.4875L77.4539 105.98Z" fill="#FFB7B7"/>
<path d="M76.8926 105.261L81.2238 105.261H81.224C81.956 105.261 82.6581 105.552 83.1757 106.07C83.6933 106.589 83.9842 107.291 83.9842 108.024V108.114L76.8927 108.114L76.8926 105.261Z" fill="#424242"/>
<path d="M85.7842 105.006L87.9577 105.342L90.2888 97.1097L87.0808 96.613L85.7842 105.006Z" fill="#FFB7B7"/>
<path d="M85.3394 104.209L89.6198 104.872L89.62 104.872C90.3434 104.984 90.9927 105.379 91.4251 105.971C91.8575 106.562 92.0375 107.301 91.9257 108.025L91.9119 108.114L84.9038 107.029L85.3394 104.209Z" fill="#424242"/>
<path d="M76.808 103.444L76.7965 103.383L68.8347 60.2872C68.2026 56.8275 68.7068 53.2559 70.2716 50.107L75.0906 40.4583L89.4701 42.4085L91.1671 54.6929L97.2146 78.1272L97.2086 78.1463L89.4604 102.786L84.3824 103.12L88.8806 81.1259L80.6441 62.3973L81.225 103.109L76.808 103.444Z" fill="#424242"/>
<path d="M89.8044 43.9807L89.7095 43.8319C89.6925 43.805 87.9458 41.1705 83.1927 42.9295C78.3406 44.7255 74.581 41.2567 74.5436 41.2215L74.5249 41.2039L73.4261 31.3989L72.1289 23.4391L76.2582 22.7138L78.2883 21.4945L86.361 21.3506L88.4853 23.0233L91.9731 23.4038L92.2923 30.6566L92.2909 30.6645L89.8044 43.9807Z" fill="#D05F5F"/>
<path d="M90.9614 31.358V25.1476L91.9422 23.3557L91.9821 23.3545C92.7542 23.3833 93.4839 23.7152 94.0134 24.2785C94.9999 25.2819 95.4468 26.9537 95.3417 29.2474L95.3398 29.2894L90.9614 31.358Z" fill="#D05F5F"/>
<path d="M73.8669 30.683L68.8681 30.0824L68.8642 30.0247C68.6936 27.5292 69.1287 25.6767 70.1574 24.5188C70.6737 23.8996 71.4061 23.5004 72.2058 23.4022L72.2346 23.4009L73.5878 24.6324L73.8669 30.683Z" fill="#D05F5F"/>
<path d="M88.3372 18.8481H75.1832C74.9126 18.8477 74.6532 18.74 74.4619 18.5485C74.2705 18.3569 74.1629 18.0972 74.1626 17.8263V13.0583C74.1609 12.0584 74.3562 11.068 74.7373 10.1437C75.1183 9.21939 75.6777 8.37939 76.3834 7.67174C77.0891 6.9641 77.9272 6.40269 78.8498 6.01965C79.7724 5.63661 80.7614 5.43945 81.7602 5.43945C82.759 5.43945 83.748 5.63661 84.6706 6.01965C85.5932 6.40269 86.4313 6.9641 87.137 7.67174C87.8427 8.37939 88.402 9.21939 88.7831 10.1437C89.1642 11.068 89.3594 12.0584 89.3578 13.0583V17.8263C89.3575 18.0972 89.2499 18.3569 89.0585 18.5485C88.8672 18.74 88.6078 18.8478 88.3372 18.8481Z" fill="#424242"/>
<path d="M82.0659 18.8013C85.1423 18.8013 87.6362 16.3046 87.6362 13.2247C87.6362 10.1449 85.1423 7.64819 82.0659 7.64819C78.9895 7.64819 76.4956 10.1449 76.4956 13.2247C76.4956 16.3046 78.9895 18.8013 82.0659 18.8013Z" fill="#FFB7B7"/>
<path d="M87.3603 13.399H80.0061C79.868 13.3989 79.7346 13.3482 79.631 13.2567C79.5275 13.1651 79.4608 13.0389 79.4435 12.9017L79.3483 12.1392C79.3391 12.0658 79.3064 11.9975 79.2551 11.9444C79.2037 11.8913 79.1365 11.8564 79.0636 11.8449C78.9907 11.8334 78.9161 11.846 78.8509 11.8807C78.7858 11.9154 78.7337 11.9704 78.7025 12.0374L78.2204 13.0715C78.1745 13.1692 78.1019 13.2519 78.0109 13.3099C77.9199 13.3678 77.8144 13.3988 77.7066 13.399H76.5895C76.5105 13.399 76.4323 13.3825 76.36 13.3505C76.2878 13.3185 76.223 13.2718 76.1698 13.2132C76.1167 13.1547 76.0764 13.0856 76.0514 13.0106C76.0265 12.9355 76.0175 12.8561 76.0251 12.7773L76.4655 8.17137C76.475 8.07283 76.5098 7.97842 76.5666 7.89739C76.6234 7.81635 76.7002 7.75146 76.7895 7.70906C80.1575 6.13502 83.5729 6.13702 86.9408 7.71505C87.0263 7.75525 87.1003 7.81615 87.1564 7.89222C87.2124 7.9683 87.2486 8.05716 87.2616 8.15076L87.9215 12.7507C87.9331 12.8312 87.9272 12.9133 87.9043 12.9914C87.8814 13.0695 87.842 13.1417 87.7888 13.2032C87.7356 13.2647 87.6698 13.314 87.5958 13.3478C87.5219 13.3816 87.4415 13.3991 87.3603 13.399H87.3603Z" fill="#424242"/>
<path d="M90.3865 56.6108C90.6669 56.5114 90.9221 56.3517 91.1342 56.143C91.3462 55.9342 91.51 55.6814 91.6139 55.4024C91.7179 55.1234 91.7594 54.825 91.7357 54.5282C91.7119 54.2314 91.6235 53.9434 91.4766 53.6845L96.2443 48.2433L92.5225 47.7292L88.5656 52.9751C88.1475 53.2511 87.8451 53.671 87.7156 54.1552C87.5861 54.6395 87.6385 55.1545 87.863 55.6027C88.0874 56.0508 88.4683 56.4009 88.9334 56.5867C89.3985 56.7726 89.9155 56.7811 90.3865 56.6108Z" fill="#D77777"/>
<path d="M96.1362 104.833L92.811 104.833L91.229 91.9929L96.1369 91.9932L96.1362 104.833Z" fill="#D77777"/>
<path d="M96.9842 108.06L86.2622 108.06V107.924C86.2623 106.816 86.702 105.754 87.4846 104.97C88.2672 104.187 89.3287 103.746 90.4355 103.746H90.4357L96.9844 103.747L96.9842 108.06Z" fill="#424242"/>
<path d="M113.543 102.048L110.367 103.035L105.053 91.2416L109.74 89.7849L113.543 102.048Z" fill="#D77777"/>
<path d="M115.308 104.878L105.069 108.06L105.028 107.931C104.7 106.872 104.805 105.727 105.321 104.747C105.836 103.766 106.719 103.03 107.776 102.702L107.777 102.702L114.031 100.758L115.308 104.878Z" fill="#424242"/>
<path d="M93.5897 45.6343L88.665 51.2808L92.5205 51.6281L93.5897 45.6343Z" fill="#BDBDBD"/>
<path d="M91.6654 52.9126C91.6654 52.9126 89.9547 53.7688 89.7409 57.6221C89.527 61.4754 90.3824 71.5372 90.3824 71.5372C90.3824 71.5372 89.5272 76.0325 90.3824 80.0997C91.2376 84.1668 89.5272 98.9367 90.5963 98.9367C91.6653 98.9367 97.2247 99.5789 97.4386 98.9367C97.6524 98.2944 97.8663 88.6616 97.8663 88.6616C97.8663 88.6616 99.5769 83.738 97.8663 80.742C97.8663 80.742 103.839 91.183 107.702 99.1514C108.548 100.895 114.972 98.9373 113.903 97.0107C112.834 95.084 110.268 86.3074 110.268 86.3074C110.268 86.3074 108.344 79.8854 104.923 77.1026L106.633 63.4024C106.633 63.4024 110.268 54.1976 108.13 52.9133C105.993 51.6289 91.6654 52.9126 91.6654 52.9126Z" fill="#424242"/>
<path d="M98.0799 18.0197C101.15 18.0197 103.639 15.5279 103.639 12.454C103.639 9.38024 101.15 6.88843 98.0799 6.88843C95.0095 6.88843 92.5205 9.38024 92.5205 12.454C92.5205 15.5279 95.0095 18.0197 98.0799 18.0197Z" fill="#DE8F8F"/>
<path d="M104.281 18.448L97.3699 22.5152C97.3699 22.5152 94.7235 24.0071 93.735 26.5823C92.6813 29.3269 93.2937 33.1911 93.735 34.0746C94.5902 35.7871 93.3763 40.0684 93.3763 40.0684L92.3072 49.9153C92.3072 49.9153 88.4584 53.5543 91.452 53.9824C94.4455 54.4106 99.791 53.7683 102.998 53.9824C106.206 54.1965 109.841 54.6247 108.772 52.4836C107.703 50.3424 106.42 48.8444 107.703 44.5639C108.707 41.2138 108.663 28.6876 108.597 23.3977C108.588 22.6712 108.393 21.9592 108.031 21.3293C107.67 20.6994 107.153 20.1726 106.531 19.799L104.281 18.448Z" fill="#BDBDBD"/>
<path opacity="0.1" d="M101.181 25.1912L101.823 38.249L95.6061 50.8522L94.5518 50.4505L100.967 38.677L101.181 25.1912Z" fill="#BDBDBD"/>
<path opacity="0.1" d="M108.237 41.0316V39.5327L100.968 51.5207L108.237 41.0316Z" fill="#BDBDBD"/>
<path d="M94.1342 7.29838L93.2158 6.93055C93.2158 6.93055 95.1379 4.8125 97.8112 4.99662L97.0591 4.16779C97.0591 4.16779 98.8972 3.43112 100.568 5.36485C101.447 6.38144 102.463 7.57647 103.097 8.9224H104.082L103.671 9.828L105.109 10.7336L103.633 10.5716C103.773 11.3534 103.725 12.1572 103.493 12.9169L103.534 13.6327C103.534 13.6327 101.822 10.9815 101.822 10.6137V11.5347C101.822 11.5347 100.903 10.7058 100.903 10.1533L100.402 10.798L100.151 9.78526L97.0597 10.798L97.5607 9.96877L95.6386 10.245L96.3907 9.23231C96.3907 9.23231 94.2184 10.4294 94.1348 11.4425C94.0512 12.4557 92.9652 13.7447 92.9652 13.7447L92.4638 12.8237C92.4638 12.8237 91.712 8.67975 94.1342 7.29838Z" fill="#424242"/>
<path d="M97.7311 57.2165C97.9894 57.0689 98.2123 56.8664 98.384 56.6232C98.5556 56.3801 98.672 56.1022 98.7248 55.8092C98.7776 55.5161 98.7656 55.2151 98.6896 54.9272C98.6136 54.6393 98.4755 54.3716 98.285 54.143L102.012 47.9409L98.2585 48.0964L95.2945 53.9621C94.932 54.308 94.7088 54.775 94.6672 55.2746C94.6256 55.7742 94.7686 56.2717 95.0689 56.6728C95.3693 57.074 95.8062 57.3509 96.2968 57.4511C96.7875 57.5513 97.2978 57.4678 97.7311 57.2165Z" fill="#D77777"/>
<path d="M106.206 21.2312L107.809 20.9102C107.809 20.9102 112.62 24.4422 111.123 31.5063C109.627 38.5703 102.998 49.2736 102.998 49.2736C102.998 49.2736 101.501 51.2002 101.074 51.6282C100.646 52.0562 99.7907 51.6282 100.218 52.2705C100.646 52.9128 99.5769 53.3408 99.5769 53.3408C99.5769 53.3408 94.8727 53.3408 95.3004 51.6282C95.7282 49.9157 102.998 37.7131 102.998 37.7131L101.929 26.3678C101.929 26.3678 101.073 20.803 106.206 21.2312Z" fill="#BDBDBD"/>
<path d="M181.333 108.571H36.6552C36.5924 108.571 36.5322 108.546 36.4878 108.502C36.4434 108.457 36.4185 108.397 36.4185 108.334C36.4185 108.271 36.4434 108.211 36.4878 108.166C36.5322 108.122 36.5924 108.097 36.6552 108.097H181.333C181.396 108.097 181.456 108.122 181.501 108.166C181.545 108.211 181.57 108.271 181.57 108.334C181.57 108.397 181.545 108.457 181.501 108.502C181.456 108.546 181.396 108.571 181.333 108.571Z" fill="#BDBDBD"/>
<path d="M3.81379 9.90186V9.98344H1.58122C1.23852 9.98344 0.909851 10.1197 0.667525 10.3623C0.425199 10.6049 0.289062 10.934 0.289062 11.2771V16.0124C0.289062 16.3554 0.425199 16.6845 0.667525 16.9271C0.909851 17.1697 1.23852 17.306 1.58122 17.306H13.8293C14.172 17.306 14.5006 17.1697 14.7429 16.9271C14.9853 16.6845 15.1214 16.3554 15.1214 16.0124V11.2771C15.1214 10.934 14.9853 10.6049 14.7429 10.3623C14.5006 10.1197 14.172 9.98344 13.8293 9.98344H5.40296V9.90186L3.81379 9.90186Z" fill="#424242"/>
<path d="M36.278 29.5697C36.3298 36.558 31.8696 35.5012 26.4316 35.5012C20.9937 35.5012 17.0594 36.5421 16.5853 29.5697C15.8319 18.4903 18.7387 10.1934 26.4316 10.1934C34.3896 10.1934 36.1958 18.4903 36.278 29.5697Z" fill="#424242"/>
<path d="M6.49539 14.7467C6.67111 15.1026 6.76673 15.4928 6.77554 15.8897C6.78434 16.2866 6.70611 16.6806 6.54635 17.044C6.38659 17.4074 6.14919 17.7313 5.85087 17.9929C5.55255 18.2544 5.20057 18.4474 4.81971 18.5581L4.32352 28.196L0.289062 25.2233L1.37878 16.5267C1.23548 15.8738 1.33637 15.191 1.66233 14.6077C1.98829 14.0243 2.51667 13.5809 3.14736 13.3615C3.77805 13.1421 4.46722 13.1619 5.08428 13.4172C5.70135 13.6725 6.20343 14.1455 6.49539 14.7467V14.7467Z" fill="#DE8F8F"/>
<path d="M42.8764 69.2144C43.0954 68.8834 43.2391 68.5083 43.2976 68.1156C43.356 67.723 43.3278 67.3222 43.2148 66.9417C43.1019 66.5611 42.9069 66.2099 42.6437 65.913C42.3805 65.616 42.0555 65.3804 41.6915 65.2228L42.4067 55.5986L38.0317 58.0413L38.0233 66.806C37.7993 67.4357 37.8138 68.1258 38.0641 68.7455C38.3144 69.3652 38.7831 69.8714 39.3813 70.1683C39.9795 70.4652 40.6657 70.532 41.3099 70.3562C41.9541 70.1804 42.5115 69.7742 42.8764 69.2144H42.8764Z" fill="#DE8F8F"/>
<path d="M22.7282 115.543L26.0355 115.542L27.6087 102.771L22.7275 102.772L22.7282 115.543Z" fill="#DE8F8F"/>
<path d="M21.8843 114.461L28.3974 114.461H28.3976C28.9427 114.461 29.4824 114.569 29.986 114.777C30.4896 114.986 30.9472 115.292 31.3326 115.678C31.718 116.064 32.0238 116.522 32.2324 117.026C32.441 117.53 32.5483 118.071 32.5483 118.616V118.752L21.8845 118.752L21.8843 114.461Z" fill="#424242"/>
<path d="M43.7695 115.543L47.0767 115.542L48.6502 102.771L43.769 102.772L43.7695 115.543Z" fill="#DE8F8F"/>
<path d="M42.9258 114.461L49.4389 114.461H49.4391C49.9842 114.461 50.5239 114.569 51.0275 114.777C51.5311 114.986 51.9887 115.292 52.3741 115.678C52.7595 116.064 53.0653 116.522 53.2739 117.026C53.4825 117.53 53.5898 118.071 53.5898 118.616V118.752L42.926 118.752L42.9258 114.461Z" fill="#424242"/>
<path d="M41.8819 63.9116L41.7382 63.8855C40.5336 63.6672 39.3143 63.4464 38.2423 63.2156L38.1362 63.1927L38.1358 63.084C38.1174 58.1888 38.099 53.2944 38.0719 48.3557C35.5115 43.1891 34.4351 37.412 34.9627 31.6687L34.9688 31.608L35.0185 31.5724C35.4851 31.248 36.0296 31.0539 36.596 31.01C37.1625 30.9662 37.7303 31.0742 38.2412 31.3229C38.741 31.5964 39.1682 31.9856 39.4872 32.4579C39.8063 32.9303 40.0079 33.4721 40.0753 34.0383C41.0502 39.3574 42.0594 44.8655 43.185 50.2931L43.1892 50.3129L43.1873 50.3332C42.7702 54.7598 42.3391 59.3372 41.8965 63.7661L41.8819 63.9116Z" fill="#D05F5F"/>
<path d="M39.726 110.991L39.6997 110.866C38.1525 103.54 36.659 97.5736 35.2146 91.8039C33.4838 84.8892 31.8435 78.337 30.1876 69.8579C30.415 80.5505 30.9432 88.2326 31.5504 97.0627C31.8246 101.05 32.108 105.173 32.3956 109.986L32.4044 110.133L32.2576 110.129C27.0815 109.997 21.7784 109.676 16.6498 109.367L16.5142 109.359L16.5234 109.223C17.4944 94.8951 17.7986 85.5847 18.0208 78.7864C18.4895 64.4437 18.5615 62.2391 23.8982 50.1007C24.1004 49.6402 25.3073 48.2796 26.6342 48.4869L37.1339 50.1229L37.1523 50.2154C37.4487 51.7095 38.9189 56.2431 40.9538 62.5179C45.304 75.9317 51.878 96.203 53.9318 108.286L53.955 108.423L53.8177 108.443C50.8348 108.867 48.688 109.309 46.6118 109.736C44.6475 110.141 42.6164 110.559 39.8516 110.972L39.726 110.991Z" fill="#424242"/>
<path d="M30.6001 53.9146C27.7977 53.9148 25.0278 52.9414 23.0421 51.0459C22.7318 50.8652 22.4693 50.6124 22.2769 50.309C22.0845 50.0055 21.9677 49.6602 21.9364 49.3021C21.8855 48.9741 21.9069 48.6389 21.9991 48.32C22.0913 48.0011 22.2521 47.7063 22.4702 47.4562C20.5234 45.0971 18.5134 42.6589 16.5893 40.1761L16.5361 40.1075L16.5977 39.9899C17.8566 37.582 19.1583 35.0923 20.4084 32.6322C20.4954 32.4177 20.6386 32.2308 20.8229 32.0911C21.0072 31.9514 21.2258 31.864 21.4555 31.8383C21.6551 31.8006 21.8603 31.8039 22.0585 31.8483C22.2568 31.8926 22.4439 31.977 22.6084 32.0963L22.6109 32.0364C22.6631 30.7911 22.7154 29.5457 22.7691 28.3652L22.7748 28.2391L22.9009 28.2362C25.3045 28.1832 27.7899 28.1281 30.2313 27.9833L30.3242 27.9778L31.5351 30.6819C33.5018 30.4907 35.4806 30.8928 37.2172 31.8365L37.2971 31.8792L37.2879 31.9694C36.8008 36.6167 36.9067 41.3071 37.6031 45.9276C37.5653 48.0372 37.5246 50.1935 37.0971 51.9123L37.0846 51.9624L37.0418 51.9914C35.1333 53.2594 32.8906 53.929 30.6001 53.9146Z" fill="#D05F5F"/>
<path d="M20.285 42.1831L20.1237 42.109C18.2407 41.1632 16.3518 40.1141 14.5251 39.0995L14.2727 39.0502C9.46304 38.0836 6.81363 37.5513 2.47445 35.0039L2.44112 34.9842L2.42321 34.9499C0.25049 30.7947 -0.355554 27.1625 0.187066 21.5487L0.197931 21.4361L0.310422 21.4271C0.780795 21.3889 1.54747 21.3633 2.28886 21.3385C3.01015 21.3145 3.75601 21.2894 4.21328 21.2536L4.31938 21.2451L4.35218 21.3464C4.92075 23.1042 5.40376 24.7441 5.91517 26.4803C6.44079 28.265 6.98407 30.1095 7.64583 32.159C10.0688 32.8561 16.5641 32.6477 18.5836 32.3724C19.1877 32.3279 19.7932 32.4361 20.3446 32.6871C20.8959 32.938 21.3754 33.3237 21.739 33.8087L21.7765 33.8556L21.7668 33.915C21.3222 36.6314 20.8116 39.364 20.3179 42.0066L20.285 42.1831Z" fill="#D05F5F"/>
<path d="M32.1243 23.763C33.8795 20.5486 32.6994 16.5183 29.4886 14.7611C26.2778 13.004 22.2521 14.1853 20.4969 17.3998C18.7417 20.6142 19.9217 24.6444 23.1325 26.4016C26.3433 28.1587 30.3691 26.9774 32.1243 23.763Z" fill="#DE8F8F"/>
<path d="M18.7432 20.1857H21.3637L22.5198 16.945L22.751 20.1857H24.0035L24.6779 18.2953L24.8128 20.1857H34.1196C34.1196 18.3235 33.3807 16.5375 32.0653 15.2207C30.75 13.9038 28.966 13.1641 27.1058 13.1641H25.757C23.8968 13.1641 22.1128 13.9038 20.7975 15.2207C19.4821 16.5375 18.7432 18.3235 18.7432 20.1857Z" fill="#424242"/>
</g>
<defs>
<clipPath id="clip0_333_3424">
<rect width="181.57" height="118.752" fill="white"/>
</clipPath>
</defs>
</svg>
